<svg xmlns="http://www.w3.org/2000/svg" width="21.088" height="25.431" viewBox="0 0 21.088 25.431"><path d="M140.582,15.605a5.024,5.024,0,0,0,4.63-3.884,7.25,7.25,0,0,0,1.457-4.46,5.092,5.092,0,0,0-6.152-4.875A4.775,4.775,0,0,1,137.488,2a.7.7,0,0,0-.781.12A7.061,7.061,0,0,0,134.5,7.336a7.226,7.226,0,0,0,1.462,4.395A5.009,5.009,0,0,0,140.582,15.605Zm0-1.417c-1.912,0-3.469-1.912-3.469-4.26a4.789,4.789,0,0,1,1.006-3A6.035,6.035,0,0,0,144.035,9.6c.005.11.01.215.01.325C144.05,12.277,142.494,14.189,140.582,14.189ZM137.348,3.477a6.172,6.172,0,0,0,3.449.29,3.7,3.7,0,0,1,4.455,3.5c-.015.375-.05.716-.1,1.041a.71.71,0,0,0-.656-.21c-2.5.506-4.295-.33-5.656-2.643h0a.706.706,0,0,0-1.051-.19h0a5.688,5.688,0,0,0-1.832,2.848,5.824,5.824,0,0,1,1.386-4.635Z" transform="translate(-130.04 -1.932)" fill="#4621ad"/><path d="M63.68,304.581a22.35,22.35,0,0,0-15.472,0,4.344,4.344,0,0,0-2.808,4.079v4.185a.7.7,0,0,0,.706.706H65.782a.7.7,0,0,0,.706-.706v-4.185A4.356,4.356,0,0,0,63.68,304.581Zm-5.4.17-2.343,4.39-2.338-4.39A20.9,20.9,0,0,1,58.284,304.752Zm-9.44,7.388H46.807v-3.474a2.961,2.961,0,0,1,1.021-2.237,10.217,10.217,0,0,1,1.011,4.435v1.276Zm12.779-1.281v1.281H50.26v-1.281a11.653,11.653,0,0,0-1.176-5.08,20.915,20.915,0,0,1,3.038-.806l3.2,6.007a.7.7,0,0,0,1.246,0l3.2-6.007a20.914,20.914,0,0,1,3.038.806A11.589,11.589,0,0,0,61.622,310.858Zm3.454,1.281H63.039v-1.281a10.289,10.289,0,0,1,1.011-4.435,2.961,2.961,0,0,1,1.021,2.237v3.479Z" transform="translate(-45.4 -288.12)" fill="#4621ad"/></svg>