<svg xmlns="http://www.w3.org/2000/svg" width="21.088" height="10.351" viewBox="0 0 21.088 10.351"><path d="M63.68,304.581a22.35,22.35,0,0,0-15.472,0,4.344,4.344,0,0,0-2.808,4.079v4.185a.7.7,0,0,0,.706.706H65.782a.7.7,0,0,0,.706-.706v-4.185A4.356,4.356,0,0,0,63.68,304.581Zm-5.4.17-2.343,4.39-2.338-4.39A20.9,20.9,0,0,1,58.284,304.752Zm-9.44,7.388H46.807v-3.474a2.961,2.961,0,0,1,1.021-2.237,10.217,10.217,0,0,1,1.011,4.435v1.276Zm12.779-1.281v1.281H50.26v-1.281a11.653,11.653,0,0,0-1.176-5.08,20.915,20.915,0,0,1,3.038-.806l3.2,6.007a.7.7,0,0,0,1.246,0l3.2-6.007a20.914,20.914,0,0,1,3.038.806A11.589,11.589,0,0,0,61.622,310.858Zm3.454,1.281H63.039v-1.281a10.289,10.289,0,0,1,1.011-4.435,2.961,2.961,0,0,1,1.021,2.237v3.479Z" transform="translate(-45.4 -303.2)" fill="#fff"/></svg>