<svg xmlns="http://www.w3.org/2000/svg" xmlns:xlink="http://www.w3.org/1999/xlink" width="72.853" height="72.853" viewBox="0 0 72.853 72.853"><defs><clipPath id="a"><path d="M0,0H72.853V72.853H0Z" fill="#fe0"/></clipPath></defs><g clip-path="url(#a)"><g transform="translate(10.407)"><g transform="translate(13.009)"><path d="M38.724,0A13.009,13.009,0,0,0,25.714,13.009V28.621a13.009,13.009,0,1,0,26.019,0V13.009A13.009,13.009,0,0,0,38.724,0Zm7.806,28.621a7.806,7.806,0,1,1-15.611,0v-5.2H46.529Zm0-10.407H30.918v-5.2a7.806,7.806,0,1,1,15.611,0Z" transform="translate(-25.714)" fill="#fe0"/></g><g transform="translate(0 20.815)"><path d="M60.864,69.691H40.049V53.926A23.443,23.443,0,0,0,60.864,30.663v-5.2a2.6,2.6,0,1,0-5.2,0v5.2a18.213,18.213,0,0,1-36.426,0v-5.2a2.6,2.6,0,0,0-5.2,0v5.2A23.443,23.443,0,0,0,34.845,53.926V69.691H14.03a2.6,2.6,0,1,0,0,5.2H60.864a2.6,2.6,0,1,0,0-5.2Z" transform="translate(-11.428 -22.857)" fill="#fe0"/></g></g></g></svg>