<svg xmlns="http://www.w3.org/2000/svg" width="21.088" height="26.81" viewBox="0 0 21.088 26.81"><path d="M74.527,18.823a22.146,22.146,0,0,0-4.423-1.14l-.369-1.726a8.476,8.476,0,0,1,1.679.808h0a.78.78,0,0,0,1.056-.185,9.706,9.706,0,0,0,1.837-5.764C74.311,5.954,70.916,2,66.746,2s-7.564,3.954-7.564,8.81A9.708,9.708,0,0,0,61.04,16.6a.754.754,0,0,0,1.013.179,8.3,8.3,0,0,1,1.7-.839l-.375,1.742a22.51,22.51,0,0,0-4.423,1.14A4.251,4.251,0,0,0,56.2,22.787v5.279a.743.743,0,0,0,.744.744h19.6a.743.743,0,0,0,.744-.744V22.787A4.249,4.249,0,0,0,74.527,18.823Zm-7.781-3.241c-1.557,0-2.866-1.663-3.046-3.785a10.766,10.766,0,0,0,3.574-3.484A11.06,11.06,0,0,0,69.639,9.86a5.687,5.687,0,0,1,.185,1.43C69.819,13.655,68.441,15.582,66.746,15.582Zm0,1.489a3.733,3.733,0,0,0,1.62-.385l.417,1.932c-.063.86-1.3,1.774-2.037,2.217-.8-.48-1.974-1.394-2.032-2.217l.412-1.921A3.689,3.689,0,0,0,66.746,17.07Zm-.338,5.284a.749.749,0,0,0,.67,0c.29-.148,2.608-1.367,3.1-3.146.612.1,1.219.227,1.816.385a5.254,5.254,0,0,1-10.494,0c.6-.158,1.209-.28,1.816-.385C63.8,20.982,66.118,22.206,66.409,22.354Zm-4.55-7.195a8.329,8.329,0,0,1-1.188-4.344c0-4.038,2.724-7.321,6.076-7.321s6.076,3.283,6.076,7.321a8.315,8.315,0,0,1-1.188,4.344,10.554,10.554,0,0,0-1.161-.544,6.982,6.982,0,0,0,.818-3.9,7.176,7.176,0,0,0-.359-1.726.8.8,0,0,0-.369-.343,9.884,9.884,0,0,1-2.94-2.032h0a.748.748,0,0,0-1.188.179,9.239,9.239,0,0,1-3.843,3.917h0a.748.748,0,0,0-.406.67h0A6.932,6.932,0,0,0,63,14.621,9.42,9.42,0,0,0,61.859,15.159ZM75.8,27.326H57.694V22.792a2.754,2.754,0,0,1,1.795-2.571c.179-.069.369-.127.549-.19a6.752,6.752,0,0,0,13.423,0c.185.063.369.121.549.19A2.761,2.761,0,0,1,75.8,22.792v4.534Z" transform="translate(-56.2 -2)" fill="#fff"/></svg>