<svg xmlns="http://www.w3.org/2000/svg" xmlns:xlink="http://www.w3.org/1999/xlink" width="72.853" height="72.853" viewBox="0 0 72.853 72.853"><defs><clipPath id="a"><path d="M0,0H72.853V72.853H0Z" fill="#fe0" stroke="#707070" stroke-width="1"/></clipPath></defs><g clip-path="url(#a)"><g transform="translate(13.009)"><g transform="translate(0)"><path d="M53.314,10.408h-.572L50.634,1.97A2.6,2.6,0,0,0,48.11,0H27.3a2.6,2.6,0,0,0-2.524,1.97l-2.108,8.438h-.572a7.806,7.806,0,0,0-7.806,7.806V54.64a7.806,7.806,0,0,0,7.806,7.806h.572l2.108,8.438a2.6,2.6,0,0,0,2.524,1.97H48.11a2.6,2.6,0,0,0,2.524-1.97l2.108-8.438h.572A7.806,7.806,0,0,0,61.12,54.64V18.213A7.806,7.806,0,0,0,53.314,10.408ZM29.327,5.2H46.078l1.3,5.2H28.026ZM46.078,67.649H29.327l-1.3-5.2H47.379ZM55.916,54.64a2.6,2.6,0,0,1-2.6,2.6H22.091a2.6,2.6,0,0,1-2.6-2.6V39.028H23.3l4.423,6.648a2.6,2.6,0,0,0,4.6-.52l5.115-13.6,5.586,18.624A2.6,2.6,0,0,0,45.4,52.035h.1A2.6,2.6,0,0,0,47.925,50.4l4.548-11.373h3.442Zm0-20.815h-5.2a2.6,2.6,0,0,0-2.417,1.634L45.86,41.552,40.2,22.67a2.6,2.6,0,0,0-2.407-1.855A2.672,2.672,0,0,0,35.265,22.5L29.244,38.563l-2.386-3.58a2.6,2.6,0,0,0-2.165-1.158h-5.2V18.213a2.6,2.6,0,0,1,2.6-2.6H53.314a2.6,2.6,0,0,1,2.6,2.6V33.825Z" transform="translate(-14.286)" fill="#fe0"/></g></g></g></svg>