<svg xmlns="http://www.w3.org/2000/svg" xmlns:xlink="http://www.w3.org/1999/xlink" width="72.853" height="72.853" viewBox="0 0 72.853 72.853"><defs><clipPath id="a"><path d="M0,0H72.853V72.853H0Z" fill="#fe0" stroke="#707070" stroke-miterlimit="10" stroke-width="1"/></clipPath></defs><g clip-path="url(#a)"><g transform="translate(0.004 0)"><g transform="translate(0 0)"><path d="M71.5,25.556a2.8,2.8,0,0,0-3.843.951c-.023.038-.045.076-.066.115L58.8,42l-4.812-8.253L72.4,4.288a2.8,2.8,0,1,0-4.759-2.967L50.8,28.279,41.653,12.6A2.8,2.8,0,0,0,39.3,11.2a2.735,2.735,0,0,0-2.413,1.274l-6.377,9.8L24.857,12.6a2.8,2.8,0,0,0-2.363-1.4,2.984,2.984,0,0,0-2.419,1.3L.48,43.292a2.8,2.8,0,0,0,.858,3.865h0A2.8,2.8,0,0,0,5.2,46.3v0L22.334,19.38l4.759,8.163L.5,68.464a2.8,2.8,0,1,0,4.609,3.178q.043-.062.083-.127L30.257,32.957l9.358,16.038a2.8,2.8,0,0,0,2.377,1.4h.042a2.8,2.8,0,0,0,2.374-1.316l6.231-9.969,5.772,9.885a3.012,3.012,0,0,0,2.419,1.4,2.8,2.8,0,0,0,2.419-1.4l11.2-19.6A2.8,2.8,0,0,0,71.5,25.556ZM42.115,42.181,33.669,27.7l5.436-8.362,8.345,14.3Z" transform="translate(-0.004 0)" fill="#fe0"/></g></g></g></svg>